<svg id='Slip_Dress_24' width='24' height='24' viewBox='0 0 24 24' xmlns='http://www.w3.org/2000/svg' xmlns:xlink='http://www.w3.org/1999/xlink'><rect width='24' height='24' stroke='none' fill='#000000' opacity='0'/>


<g transform="matrix(0.25 0 0 0.25 12 12)" >
<g style="" >
<g transform="matrix(1 0 0 1 0 -27.5)" >
<path style="stroke: none; stroke-width: 1; stroke-dasharray: none; stroke-linecap: butt; stroke-dashoffset: 0; stroke-linejoin: miter; stroke-miterlimit: 4; fill: rgb(199,67,67); fill-rule: nonzero; opacity: 1;" transform=" translate(-40, -12.5)" d="M 30.5 20 C 30.2 20 30 19.8 30 19.5 L 30 5.5 C 30 5.2 30.2 5 30.5 5 C 30.8 5 31 5.2 31 5.5 L 31 19.5 C 31 19.8 30.8 20 30.5 20 z M 49.5 20 C 49.2 20 49 19.8 49 19.5 L 49 5.5 C 49 5.2 49.2 5 49.5 5 C 49.8 5 50 5.2 50 5.5 L 50 19.5 C 50 19.8 49.8 20 49.5 20 z" stroke-linecap="round" />
</g>
<g transform="matrix(1 0 0 1 -0.05 5.5)" >
<path style="stroke: none; stroke-width: 1; stroke-dasharray: none; stroke-linecap: butt; stroke-dashoffset: 0; stroke-linejoin: miter; stroke-miterlimit: 4; fill: rgb(248,143,143); fill-rule: nonzero; opacity: 1;" transform=" translate(-39.95, -45.5)" d="M 40 75.5 C 29.1 75.5 22.9 72.5 21.6 71.7 C 22.8 65.3 24.400000000000002 58 26.5 50.1 C 27 48.4 27.5 46.7 28.1 45.1 C 29.200000000000003 41.9 30.400000000000002 38.6 30.5 35 C 30.6 32.9 29.9 30.8 29.4 28.9 C 29 27.4 28.5 26.099999999999998 28.5 24.9 C 28.5 21.5 29.8 17.7 30.6 15.499999999999998 C 31.8 23.599999999999998 39.8 25.4 39.8 25.4 L 39.9 25.4 L 40 25.4 C 40.1 25.4 48 23.5 49.2 15.499999999999998 C 50.1 17.7 51.300000000000004 21.5 51.300000000000004 24.9 C 51.300000000000004 26 50.900000000000006 27.4 50.400000000000006 28.9 C 49.800000000000004 30.7 49.2 32.8 49.300000000000004 35 C 49.400000000000006 38.4 50.400000000000006 41.1 51.6 44 C 52.2 45.6 52.9 47.3 53.4 49.1 C 55.6 57.2 57.3 65.8 58.3 71.7 C 57.1 72.5 50.9 75.5 40 75.5 z" stroke-linecap="round" />
</g>
<g transform="matrix(1 0 0 1 0 4.75)" >
<path style="stroke: none; stroke-width: 1; stroke-dasharray: none; stroke-linecap: butt; stroke-dashoffset: 0; stroke-linejoin: miter; stroke-miterlimit: 4; fill: rgb(199,67,67); fill-rule: nonzero; opacity: 1;" transform=" translate(-40, -44.75)" d="M 49.5 17.3 C 50.2 19.5 51 22.3 51 25 C 51 26.1 50.6 27.4 50.2 28.8 C 49.6 30.7 49 32.8 49 35 C 49.1 38.5 50.2 41.3 51.3 44.2 C 51.9 45.800000000000004 52.599999999999994 47.400000000000006 53 49.300000000000004 C 55.1 57.300000000000004 56.8 65.7 57.9 71.5 C 56.1 72.4 50.1 75 40 75 C 29.9 75 23.9 72.4 22.1 71.5 C 23.3 65.2 24.900000000000002 58.1 27 50.3 C 27.5 48.599999999999994 28 46.9 28.6 45.3 C 29.7 42 30.9 38.7 31 35 C 31.1 32.8 30.4 30.7 29.8 28.8 C 29.4 27.4 29 26.1 29 25 C 29 22.4 29.8 19.5 30.5 17.4 C 32.5 24.4 39.7 26 39.8 26 L 40 26 L 40.2 26 C 40.3 26 47.5 24.3 49.5 17.3 M 49 13.5 C 49 23 40 25 40 25 C 40 25 31 23.1 31 13.5 C 31 13.5 28 19.6 28 25 C 28 27.7 30.1 31.3 30 35 C 29.8 40.3 27.4 44.9 26 50 C 24 57.7 22.2 65.2 21 72 C 21 72 27.3 76 40 76 C 52.7 76 59 72 59 72 C 57.8 65.2 56 56.7 54 49 C 52.6 43.9 50.2 40.3 50 35 C 49.9 31.3 52 27.7 52 25 C 52 19.6 49 13.5 49 13.5 L 49 13.5 z" stroke-linecap="round" />
</g>
</g>
</g>
</svg>